name rise45.9887peak57.8056fall74.9286.mot
datacolumns 19
datarows 35
range 20.54326000000000 20.59992400000000
endheader
time	ground_force1_vx	ground_force1_vy	ground_force1_vz	ground_force1_px	ground_force1_py	ground_force1_pz	ground_force2_vx	ground_force2_vy	ground_force2_vz	ground_force2_px	ground_force2_py	ground_force2_pz	ground_torque1_x	ground_torque1_y	ground_torque1_z	ground_torque2_x	ground_torque2_y	ground_torque2_z	
20.54326000000000	-5.41837500000000	41.20098800000000	-10.97181000000000	0.29053400000000	0.00000000000000	0.10426700000000	-47.49161900000000	804.75494800000001	-60.42049200000000	0.11573000000000	0.00000000000000	-0.09004200000000	0.00000000000000	-6.96146300000000	0.00000000000000	0.00000000000000	-20.31842900000000	0.00000000000000	
20.54492500000000	-5.83104800000000	48.46057600000000	-12.35635200000000	0.29801100000000	0.00000000000000	0.10552900000000	-48.20212400000000	802.60855900000001	-60.19205300000000	0.11488700000000	0.00000000000000	-0.08994900000000	0.00000000000000	-7.98160400000000	0.00000000000000	0.00000000000000	-20.29098400000000	0.00000000000000	
20.54661400000000	-6.10949000000000	55.85545800000000	-13.62016600000000	0.30459700000000	0.00000000000000	0.10667400000000	-48.93017100000000	800.30916500000001	-59.93603100000000	0.11404400000000	0.00000000000000	-0.08985400000000	0.00000000000000	-8.94832600000000	0.00000000000000	0.00000000000000	-20.26433600000000	0.00000000000000	
20.54825300000000	-6.23801200000000	63.29355000000000	-14.73383700000000	0.31044700000000	0.00000000000000	0.10772100000000	-49.67531500000000	797.85389199999997	-59.65218100000000	0.11320100000000	0.00000000000000	-0.08975500000000	0.00000000000000	-9.83993400000000	0.00000000000000	0.00000000000000	-20.23849700000000	0.00000000000000	
20.54992600000000	-6.20774700000000	70.70396700000001	-15.67754400000000	0.31568000000000	0.00000000000000	0.10868500000000	-50.43698900000000	795.23988799999995	-59.34030200000000	0.11235700000000	0.00000000000000	-0.08965200000000	0.00000000000000	-10.64075400000000	0.00000000000000	0.00000000000000	-20.21345900000000	0.00000000000000	
20.55159800000000	-6.01647000000000	78.03936000000000	-16.44121900000000	0.32039100000000	0.00000000000000	0.10958000000000	-51.21451300000000	792.46432100000004	-59.00023000000000	0.11151400000000	0.00000000000000	-0.08954700000000	0.00000000000000	-11.34144200000000	0.00000000000000	0.00000000000000	-20.18919700000000	0.00000000000000	
20.55325800000000	-5.66790400000000	85.27591600000000	-17.02388700000000	0.32465700000000	0.00000000000000	0.11041300000000	-52.00708300000000	789.52438800000004	-58.63184300000000	0.11067000000000	0.00000000000000	-0.08943800000000	0.00000000000000	-11.93872700000000	0.00000000000000	0.00000000000000	-20.16566600000000	0.00000000000000	
20.55492000000000	-5.17066800000000	92.41141700000000	-17.43237800000000	0.32854300000000	0.00000000000000	0.11119400000000	-52.81377700000000	786.41732100000002	-58.23506400000000	0.10982700000000	0.00000000000000	-0.08932500000000	0.00000000000000	-12.43470000000000	0.00000000000000	0.00000000000000	-20.14280300000000	0.00000000000000	
20.55661400000000	-4.53699400000000	99.46185300000000	-17.67961400000000	0.33210000000000	0.00000000000000	0.11192800000000	-53.63355000000000	783.14039100000002	-57.80985700000000	0.10898500000000	0.00000000000000	-0.08920900000000	0.00000000000000	-12.83578100000000	0.00000000000000	0.00000000000000	-20.12052300000000	0.00000000000000	
20.55825200000000	-3.78138700000000	106.45712600000000	-17.78271000000000	0.33537100000000	0.00000000000000	0.11262200000000	-54.46523600000000	779.69092100000000	-57.35623200000000	0.10814400000000	0.00000000000000	-0.08909000000000	0.00000000000000	-13.15151000000000	0.00000000000000	0.00000000000000	-20.09872100000000	0.00000000000000	
20.55993700000000	-2.91932300000000	113.43635500000001	-17.76104900000000	0.33839200000000	0.00000000000000	0.11328000000000	-55.30754700000000	776.06628400000000	-56.87424500000000	0.10730400000000	0.00000000000000	-0.08896800000000	0.00000000000000	-13.39330300000000	0.00000000000000	0.00000000000000	-20.07727600000000	0.00000000000000	
20.56159800000000	-1.96610000000000	120.44323600000000	-17.63451900000000	0.34119400000000	0.00000000000000	0.11390500000000	-56.15907700000000	772.26392199999998	-56.36399800000000	0.10646500000000	0.00000000000000	-0.08884200000000	0.00000000000000	-13.57325900000000	0.00000000000000	0.00000000000000	-20.05604000000000	0.00000000000000	
20.56325300000000	-0.93590500000000	127.52181299999999	-17.42201300000000	0.34380400000000	0.00000000000000	0.11450100000000	-57.01830000000000	768.28134999999997	-55.82564200000000	0.10562900000000	0.00000000000000	-0.08871200000000	0.00000000000000	-13.70313300000000	0.00000000000000	0.00000000000000	-20.03485200000000	0.00000000000000	
20.56492600000000	0.15888300000000	134.71293399999999	-17.14025600000000	0.34624200000000	0.00000000000000	0.11507100000000	-57.88357600000000	764.11616700000002	-55.25937400000000	0.10479600000000	0.00000000000000	-0.08858000000000	0.00000000000000	-13.79351000000000	0.00000000000000	0.00000000000000	-20.01352500000000	0.00000000000000	
20.56661200000000	1.30810600000000	142.05153100000001	-16.80302000000000	0.34852800000000	0.00000000000000	0.11561600000000	-58.75315200000000	759.76606800000002	-54.66544300000000	0.10396700000000	0.00000000000000	-0.08844400000000	0.00000000000000	-13.85321100000000	0.00000000000000	0.00000000000000	-19.99185500000000	0.00000000000000	
20.56825500000000	2.50402100000000	149.56479400000001	-16.42068400000000	0.35067800000000	0.00000000000000	0.11614000000000	-59.62516600000000	755.22885900000006	-54.04414600000000	0.10314100000000	0.00000000000000	-0.08830400000000	0.00000000000000	-13.88895100000000	0.00000000000000	0.00000000000000	-19.96962000000000	0.00000000000000	
20.56992700000000	3.74125200000000	157.27122000000000	-16.00014000000000	0.35270700000000	0.00000000000000	0.11664300000000	-60.49765200000000	750.50246400000003	-53.39583200000000	0.10232000000000	0.00000000000000	-0.08816100000000	0.00000000000000	-13.90520600000000	0.00000000000000	0.00000000000000	-19.94657700000000	0.00000000000000	
20.57160100000000	5.01658900000000	165.18044100000000	-15.54497700000000	0.35462600000000	0.00000000000000	0.11712800000000	-61.36854400000000	745.58494599999995	-52.72090000000000	0.10150400000000	0.00000000000000	-0.08801500000000	0.00000000000000	-13.90428800000000	0.00000000000000	0.00000000000000	-19.92246400000000	0.00000000000000	
20.57325700000000	6.32864400000000	173.29371200000000	-15.05588000000000	0.35644500000000	0.00000000000000	0.11759600000000	-62.23568000000000	740.47451799999999	-52.01979900000000	0.10069400000000	0.00000000000000	-0.08786500000000	0.00000000000000	-13.88656200000000	0.00000000000000	0.00000000000000	-19.89700300000000	0.00000000000000	
20.57492100000000	7.67743500000000	181.60489300000000	-14.53117200000000	0.35817400000000	0.00000000000000	0.11804700000000	-63.09681400000000	735.16955900000005	-51.29303100000000	0.09989100000000	0.00000000000000	-0.08771200000000	0.00000000000000	-13.85077400000000	0.00000000000000	0.00000000000000	-19.86989900000000	0.00000000000000	
20.57661300000000	9.06394300000000	190.10176500000000	-13.96744300000000	0.35982000000000	0.00000000000000	0.11848300000000	-63.94961400000000	729.66863100000000	-50.54114700000000	0.09909600000000	0.00000000000000	-0.08755500000000	0.00000000000000	-13.79445000000000	0.00000000000000	0.00000000000000	-19.84084100000000	0.00000000000000	
20.57826000000000	10.48966200000000	198.76752200000001	-13.36019000000000	0.36139100000000	0.00000000000000	0.11890500000000	-64.79167600000000	723.97049400000003	-49.76475000000000	0.09830900000000	0.00000000000000	-0.08739400000000	0.00000000000000	-13.71430500000000	0.00000000000000	0.00000000000000	-19.80950100000000	0.00000000000000	
20.57992600000000	11.95620100000000	207.58229200000000	-12.70443100000000	0.36289100000000	0.00000000000000	0.11931400000000	-65.62052799999999	718.07412199999999	-48.96449300000000	0.09753100000000	0.00000000000000	-0.08723000000000	0.00000000000000	-13.60664700000000	0.00000000000000	0.00000000000000	-19.77554000000000	0.00000000000000	
20.58161400000000	13.46494000000000	216.52457500000000	-11.99524000000000	0.36432700000000	0.00000000000000	0.11971000000000	-66.43363900000000	711.97871999999995	-48.14107800000000	0.09676200000000	0.00000000000000	-0.08706200000000	0.00000000000000	-13.46774400000000	0.00000000000000	0.00000000000000	-19.73860400000000	0.00000000000000	
20.58325800000000	15.01676300000000	225.57250800000000	-11.22819400000000	0.36570100000000	0.00000000000000	0.12009400000000	-67.22842700000000	705.68373599999995	-47.29525900000000	0.09600500000000	0.00000000000000	-0.08689100000000	0.00000000000000	-13.29412200000000	0.00000000000000	0.00000000000000	-19.69832800000000	0.00000000000000	
20.58492500000000	16.61187100000000	234.70489900000001	-10.39970000000000	0.36701900000000	0.00000000000000	0.12046600000000	-68.00226900000000	699.18887700000005	-46.42783500000000	0.09525900000000	0.00000000000000	-0.08671600000000	0.00000000000000	-13.08279900000000	0.00000000000000	0.00000000000000	-19.65433800000000	0.00000000000000	
20.58660200000000	18.24967800000000	243.90199899999999	-9.50721200000000	0.36828200000000	0.00000000000000	0.12082800000000	-68.75250600000000	692.49411699999996	-45.53965500000000	0.09452600000000	0.00000000000000	-0.08653700000000	0.00000000000000	-12.83144800000000	0.00000000000000	0.00000000000000	-19.60625200000000	0.00000000000000	
20.58825700000000	19.92877400000000	253.14601700000000	-8.54934000000000	0.36949400000000	0.00000000000000	0.12117900000000	-69.47645700000000	685.59971099999996	-44.63161400000000	0.09380500000000	0.00000000000000	-0.08635400000000	0.00000000000000	-12.53848000000000	0.00000000000000	0.00000000000000	-19.55367700000000	0.00000000000000	
20.58993300000000	21.64695400000000	262.42137300000002	-7.52586600000000	0.37065700000000	0.00000000000000	0.12152000000000	-70.17142500000000	678.50620100000003	-43.70465500000000	0.09309900000000	0.00000000000000	-0.08616700000000	0.00000000000000	-12.20306800000000	0.00000000000000	0.00000000000000	-19.49622100000000	0.00000000000000	
20.59160000000000	23.40129000000000	271.71475700000002	-6.43767600000000	0.37177200000000	0.00000000000000	0.12185100000000	-70.83470699999999	671.21442400000001	-42.75976400000000	0.09240800000000	0.00000000000000	-0.08597700000000	0.00000000000000	-11.82512400000000	0.00000000000000	0.00000000000000	-19.43348200000000	0.00000000000000	
20.59325300000000	25.18824400000000	281.01499200000001	-5.28664300000000	0.37284000000000	0.00000000000000	0.12217300000000	-71.46360600000000	663.72551199999998	-41.79797200000000	0.09173200000000	0.00000000000000	-0.08578200000000	0.00000000000000	-11.40522000000000	0.00000000000000	0.00000000000000	-19.36506300000000	0.00000000000000	
20.59492600000000	27.00379200000000	290.31278800000001	-4.07546500000000	0.37386300000000	0.00000000000000	0.12248500000000	-72.05543800000000	656.04090099999996	-40.82035500000000	0.09107200000000	0.00000000000000	-0.08558400000000	0.00000000000000	-10.94449800000000	0.00000000000000	0.00000000000000	-19.29056200000000	0.00000000000000	
20.59660300000000	28.84356200000000	299.60040700000002	-2.80748700000000	0.37484100000000	0.00000000000000	0.12278900000000	-72.60754500000000	648.16233099999999	-39.82803100000000	0.09042900000000	0.00000000000000	-0.08538100000000	0.00000000000000	-10.44455600000000	0.00000000000000	0.00000000000000	-19.20958300000000	0.00000000000000	
20.59825700000000	30.70296100000000	308.87129599999997	-1.48652400000000	0.37577500000000	0.00000000000000	0.12308400000000	-73.11730500000000	640.09184700000003	-38.82215800000000	0.08980400000000	0.00000000000000	-0.08517500000000	0.00000000000000	-9.90733300000000	0.00000000000000	0.00000000000000	-19.12173500000000	0.00000000000000	
20.59992400000000	32.57729900000000	318.11971499999999	-0.11669000000000	0.37666500000000	0.00000000000000	0.12337100000000	-73.58214200000000	631.83180300000004	-37.80393500000000	0.08919800000000	0.00000000000000	-0.08496400000000	0.00000000000000	-9.33499800000000	0.00000000000000	0.00000000000000	-19.02663400000000	0.00000000000000	
